<?xml version="1.0" standalone="no"?>
<!DOCTYPE svg PUBLIC "-//W3C//DTD SVG 20010904//EN"
 "http://www.w3.org/TR/2001/REC-SVG-20010904/DTD/svg10.dtd">
<svg version="1.0" xmlns="http://www.w3.org/2000/svg"
 width="1600.000000pt" height="1690.000000pt" viewBox="0 0 1600.000000 1690.000000"
 preserveAspectRatio="xMidYMid meet">

<g transform="translate(0.000000,1690.000000) scale(0.100000,-0.100000)"
fill="#000000" stroke="none">
<path d="M5760 14169 c-1128 -92 -2086 -879 -2399 -1970 -31 -107 -61 -250
-83 -399 -21 -137 -17 -597 6 -745 89 -575 344 -1092 740 -1503 179 -187 462
-398 684 -513 69 -35 85 -40 93 -28 8 11 9 10 7 -5 -2 -14 16 -26 87 -58 211
-92 455 -161 705 -199 173 -26 530 -32 695 -10 242 31 484 91 687 172 167 65
445 211 511 268 17 15 17 16 1 28 -22 16 -10 17 15 1 16 -10 25 -6 61 22 28
23 38 35 29 40 -7 5 -3 8 12 8 13 0 32 2 41 4 25 4 681 -650 672 -672 -3 -8
-12 -53 -21 -100 -28 -159 0 -330 80 -485 40 -78 80 -119 1602 -1641 1532
-1533 1561 -1562 1640 -1602 137 -69 210 -87 360 -87 152 0 219 15 340 75 200
99 342 274 397 493 30 118 23 309 -16 422 -61 179 31 81 -1660 1771 l-1551
1551 -90 45 c-148 74 -188 83 -360 82 -107 0 -163 -5 -196 -16 l-47 -15 -333
333 -333 333 24 33 c367 495 550 1047 550 1652 -1 916 -448 1752 -1210 2264
-509 341 -1124 501 -1740 451z m587 -239 c266 -39 497 -111 738 -230 257 -127
453 -265 654 -463 405 -398 645 -878 733 -1462 20 -139 17 -540 -6 -690 -63
-413 -220 -791 -473 -1136 -81 -111 -95 -164 -68 -247 18 -54 39 -77 380 -418
198 -199 375 -369 392 -378 55 -28 111 -30 197 -7 144 38 273 25 406 -40 60
-30 192 -159 1596 -1563 1644 -1645 1565 -1561 1608 -1706 21 -70 21 -206 1
-284 -23 -88 -71 -169 -140 -239 -97 -98 -202 -144 -345 -154 -60 -4 -105 0
-154 11 -155 37 -54 -57 -1709 1595 -915 914 -1533 1539 -1557 1573 -77 115
-105 265 -75 398 10 41 20 96 22 122 5 50 -13 122 -28 113 -5 -4 -6 1 -2 10 4
12 -86 109 -346 368 -193 194 -372 365 -397 381 -88 56 -172 46 -276 -34 -246
-185 -548 -334 -845 -415 -579 -159 -1178 -111 -1715 137 -59 27 -113 46 -119
42 -8 -5 -9 -3 -4 6 6 10 4 12 -9 7 -9 -4 -15 -3 -12 1 3 5 -32 31 -77 58 -45
27 -128 82 -185 122 -57 39 -109 69 -114 65 -6 -3 -8 -1 -5 4 4 6 -39 52 -96
102 -471 419 -767 999 -828 1627 -14 148 -6 482 15 619 182 1156 1117 2027
2280 2125 142 12 411 3 563 -20z m1713 -4135 c0 -25 -15 -24 -16 1 -1 13 2 21
7 18 5 -3 9 -11 9 -19z m64 -77 c-3 -4 -11 -5 -19 -1 -21 7 -19 12 4 10 11 0
18 -5 15 -9z m-131 -88 c9 -11 13 -20 7 -20 -5 0 -14 9 -20 20 -6 11 -9 20 -8
20 2 0 11 -9 21 -20z m-303 -169 c0 -6 -4 -12 -8 -15 -5 -3 -9 1 -9 9 0 8 4
15 9 15 4 0 8 -4 8 -9z m-29 -88 c13 -16 12 -17 -3 -4 -10 7 -18 15 -18 17 0
8 8 3 21 -13z m-3361 -3 c0 -5 -5 -10 -11 -10 -5 0 -7 5 -4 10 3 6 8 10 11 10
2 0 4 -4 4 -10z m3290 -12 c0 -6 -3 -8 -7 -5 -3 4 -12 -1 -20 -11 -13 -15 -13
-15 -3 6 11 23 30 30 30 10z m143 -15 c-7 -2 -21 -2 -30 0 -10 3 -4 5 12 5 17
0 24 -2 18 -5z m-3343 -57 c0 -2 -7 -6 -15 -10 -8 -3 -15 -1 -15 4 0 6 7 10
15 10 8 0 15 -2 15 -4z m21 -33 c12 -16 12 -17 -2 -6 -9 7 -19 10 -22 6 -4 -3
-7 -1 -7 5 0 17 16 15 31 -5z m274 -3 c3 -5 1 -10 -4 -10 -6 0 -11 5 -11 10 0
6 2 10 4 10 3 0 8 -4 11 -10z m-20 -28 c-3 -3 -11 0 -18 7 -9 10 -8 11 6 5 10
-3 15 -9 12 -12z m171 -34 c-10 -6 -22 -6 -26 -2 -5 5 3 10 18 11 22 1 24 0 8
-9z m2587 -25 c-7 -2 -21 -2 -30 0 -10 3 -4 5 12 5 17 0 24 -2 18 -5z m-2728
-91 c-3 -3 -11 0 -18 7 -9 10 -8 11 6 5 10 -3 15 -9 12 -12z m128 -2 c3 -11 1
-18 -4 -14 -5 3 -9 12 -9 20 0 20 7 17 13 -6z m4 -36 c-3 -3 -12 -4 -19 -1 -8
3 -5 6 6 6 11 1 17 -2 13 -5z m5598 -2860 l16 -25 -25 16 c-14 10 -23 21 -20
26 8 13 10 12 29 -17z m40 -44 c3 -5 1 -10 -4 -10 -6 0 -11 5 -11 10 0 6 2 10
4 10 3 0 8 -4 11 -10z"/>
<path d="M5776 13569 c-631 -60 -1215 -413 -1568 -948 -164 -248 -269 -516
-325 -826 -25 -141 -25 -557 0 -695 71 -379 214 -699 440 -980 547 -681 1443
-958 2283 -706 664 199 1210 741 1411 1401 108 357 124 745 43 1105 -174 779
-780 1399 -1559 1595 -211 53 -507 75 -725 54z m380 -220 c527 -51 990 -301
1324 -715 194 -242 324 -532 387 -869 21 -114 28 -401 13 -522 -39 -318 -140
-594 -307 -847 -417 -628 -1168 -953 -1906 -826 -404 69 -751 250 -1040 542
-269 272 -438 593 -518 986 -26 126 -36 428 -20 567 29 242 104 483 214 685
192 353 476 628 832 804 330 164 672 229 1021 195z m1489 -848 c-3 -5 -1 -12
5 -16 5 -3 10 -11 10 -18 0 -6 -7 -2 -15 9 -17 23 -19 34 -4 34 5 0 8 -4 4 -9z
m138 -126 c-3 -9 -8 -14 -10 -11 -3 3 -2 9 2 15 9 16 15 13 8 -4z m34 -167
c-3 -8 -6 -5 -6 6 -1 11 2 17 5 13 3 -3 4 -12 1 -19z m14 -79 c-5 -13 -10 -19
-10 -12 -1 15 10 45 15 40 3 -2 0 -15 -5 -28z m-24 -41 c-3 -8 -6 -5 -6 6 -1
11 2 17 5 13 3 -3 4 -12 1 -19z m-3696 -181 c-10 -9 -11 -8 -5 6 3 10 9 15 12
12 3 -3 0 -11 -7 -18z m-207 -205 c3 -5 -1 -9 -9 -9 -8 0 -12 4 -9 9 3 4 7 8
9 8 2 0 6 -4 9 -8z m63 -98 c-3 -3 -12 -4 -19 -1 -8 3 -5 6 6 6 11 1 17 -2 13
-5z"/>
<path d="M6183 11300 c-218 -39 -392 -208 -438 -425 -12 -57 -15 -173 -15
-612 0 -362 3 -544 10 -548 6 -4 86 -9 178 -12 306 -10 590 50 840 176 l62 31
0 458 c0 500 -1 514 -60 640 -54 117 -189 232 -316 272 -77 23 -191 32 -261
20z m237 -253 c77 -38 132 -100 160 -180 19 -53 20 -83 20 -437 l0 -381 -47
-20 c-139 -59 -382 -109 -534 -109 l-70 0 3 458 3 457 26 55 c34 73 76 120
138 154 100 54 195 55 301 3z"/>
<path d="M10970 12969 c-225 -43 -359 -277 -283 -494 34 -100 130 -194 233
-230 25 -9 81 -16 128 -17 45 0 81 -4 80 -9 -2 -4 -165 -177 -363 -385 -198
-207 -431 -452 -518 -543 -86 -91 -161 -166 -166 -166 -9 0 -166 139 -1011
893 -179 159 -326 289 -326 288 -1 0 16 -69 36 -152 65 -258 83 -411 85 -705
l2 -257 239 -213 c131 -117 264 -235 294 -263 31 -28 73 -67 95 -86 22 -19
114 -100 203 -180 90 -80 182 -158 205 -173 96 -65 240 -74 351 -24 75 34 77
37 301 272 104 110 235 247 290 305 55 58 141 148 190 200 50 52 138 144 196
205 58 60 173 181 255 267 l149 157 5 -132 c5 -124 7 -136 38 -199 67 -136
187 -211 337 -211 150 0 270 75 337 211 l33 67 3 615 c4 643 1 682 -40 763
-49 98 -156 175 -273 196 -71 13 -1036 13 -1105 0z m1120 -234 c21 -12 44 -39
58 -65 l22 -44 0 -581 0 -581 -22 -44 c-17 -34 -35 -51 -71 -69 -55 -27 -95
-24 -148 12 -57 38 -69 75 -69 213 0 136 -13 190 -58 238 -59 62 -167 84 -252
50 -30 -12 -109 -89 -327 -318 -158 -165 -340 -355 -403 -421 -64 -66 -232
-242 -374 -392 -167 -176 -269 -275 -288 -282 -38 -13 -79 -14 -111 -2 -27 11
0 -13 -545 474 l-412 368 0 152 c-1 84 -3 179 -7 211 l-6 60 123 -110 c68 -60
174 -154 235 -209 352 -316 520 -462 552 -478 49 -26 138 -25 190 1 37 20 132
117 888 910 138 144 258 278 269 298 57 108 11 241 -104 299 -22 12 -66 19
-125 22 -119 5 -129 8 -169 43 -47 42 -64 110 -41 166 19 45 63 84 108 94 18
4 262 7 542 6 493 -1 511 -2 545 -21z m-1233 -101 c-3 -3 -12 -4 -19 -1 -8 3
-5 6 6 6 11 1 17 -2 13 -5z m-23 -90 c3 -8 2 -12 -4 -9 -6 3 -10 10 -10 16 0
14 7 11 14 -7z m-89 -14 c3 -6 -1 -7 -9 -4 -18 7 -21 14 -7 14 6 0 13 -4 16
-10z m46 -47 c13 -15 12 -15 -8 -4 -24 12 -29 21 -14 21 5 0 15 -7 22 -17z"/>
<path d="M11873 10575 c-169 -46 -305 -171 -371 -341 l-27 -69 -3 -1455 -2
-1455 545 -545 545 -545 -2 2000 -3 2000 -27 68 c-69 170 -189 285 -357 337
-76 24 -219 26 -298 5z m261 -226 c68 -25 139 -94 175 -169 l26 -55 3 -1707
c1 -940 0 -1708 -3 -1708 -3 0 -150 144 -326 319 l-319 319 2 1389 3 1388 33
67 c74 151 246 217 406 157z"/>
<path d="M3912 9417 c-5 -6 -21 -36 -36 -64 -59 -118 -56 7 -56 -2235 0 -1454
3 -2073 11 -2110 40 -193 203 -362 395 -412 283 -73 564 86 661 374 17 53 18
139 21 1928 l2 1874 -42 16 c-24 9 -92 40 -151 69 -60 29 -113 50 -119 47 -6
-4 -8 -3 -5 2 3 5 -43 39 -101 74 -59 35 -148 95 -199 133 -51 38 -96 66 -101
63 -6 -3 -16 2 -23 12 -13 16 -12 16 6 3 18 -13 18 -13 5 0 -8 9 -70 66 -136
127 -90 83 -124 108 -132 99z m305 -289 c-3 -8 -6 -5 -6 6 -1 11 2 17 5 13 3
-3 4 -12 1 -19z m-85 -171 c123 -94 277 -190 425 -265 l133 -67 0 -1751 c0
-1145 -4 -1770 -10 -1805 -58 -302 -451 -367 -599 -99 l-36 65 -3 1993 c-1
1095 0 1992 3 1992 2 0 42 -28 87 -63z m102 14 c3 -5 -1 -11 -9 -14 -9 -4 -12
-1 -8 9 6 16 10 17 17 5z m291 -31 c3 -5 1 -10 -4 -10 -6 0 -11 5 -11 10 0 6
2 10 4 10 3 0 8 -4 11 -10z m-168 -66 c-3 -3 -12 -4 -19 -1 -8 3 -5 6 6 6 11
1 17 -2 13 -5z m500 -2240 c-3 -3 -12 -4 -19 -1 -8 3 -5 6 6 6 11 1 17 -2 13
-5z m-112 -104 c3 -6 -1 -7 -9 -4 -18 7 -21 14 -7 14 6 0 13 -4 16 -10z m45
-45 c11 -13 10 -14 -4 -9 -9 3 -16 10 -16 15 0 13 6 11 20 -6z m-60 -129 c0
-2 -7 -6 -15 -10 -8 -3 -15 -1 -15 4 0 6 7 10 15 10 8 0 15 -2 15 -4z m-700
-530 c0 -2 -7 -9 -15 -16 -13 -11 -14 -10 -9 4 5 14 24 23 24 12z m-120 -120
c0 -2 -7 -7 -16 -10 -8 -3 -12 -2 -9 4 6 10 25 14 25 6z m4 -82 c3 -8 2 -12
-4 -9 -6 3 -10 10 -10 16 0 14 7 11 14 -7z m90 8 c3 -5 -1 -9 -9 -9 -8 0 -12
4 -9 9 3 4 7 8 9 8 2 0 6 -4 9 -8z m-37 -28 c-3 -3 -12 -4 -19 -1 -8 3 -5 6 6
6 11 1 17 -2 13 -5z"/>
<path d="M7647 7070 c1 -1420 5 -2035 12 -2072 14 -63 63 -162 110 -221 160
-198 445 -255 676 -134 77 40 182 145 222 223 66 125 63 58 63 1363 l0 1185
-203 205 c-112 114 -220 232 -241 264 -56 86 -103 195 -128 294 -20 83 -25
205 -15 375 2 36 -6 45 -248 288 -137 137 -249 250 -250 250 0 0 1 -909 2
-2020z m248 1460 c16 -18 19 -40 21 -153 2 -190 34 -326 117 -496 59 -121 137
-221 318 -406 l159 -162 -2 -1139 -3 -1139 -24 -50 c-32 -63 -93 -124 -156
-156 -41 -20 -65 -24 -135 -24 -73 0 -93 4 -142 28 -67 33 -121 90 -154 162
l-25 53 -2 1751 c-1 963 1 1751 4 1751 3 0 14 -9 24 -20z m-112 -2155 c-3 -9
-8 -14 -10 -11 -3 3 -2 9 2 15 9 16 15 13 8 -4z m-85 -130 c-3 -3 -9 2 -12 12
-6 14 -5 15 5 6 7 -7 10 -15 7 -18z m121 -185 c1 -13 0 -13 -9 0 -5 8 -9 24
-9 35 l0 20 9 -20 c5 -11 9 -27 9 -35z"/>
<path d="M6749 8670 c-247 -80 -697 -124 -982 -96 l-37 4 3 -1781 c2 -1622 4
-1786 19 -1828 46 -131 115 -224 214 -292 94 -64 168 -89 284 -94 163 -9 292
40 406 152 75 74 118 150 144 251 20 76 20 114 20 1891 0 997 -3 1813 -7 1812
-5 -1 -33 -9 -64 -19z m-151 -2335 l-3 -1290 -24 -53 c-32 -71 -121 -152 -191
-175 -156 -51 -334 27 -401 176 l-24 52 0 1648 0 1647 125 5 c133 6 342 28
450 48 l65 12 3 -390 c1 -214 1 -970 0 -1680z"/>
<path d="M9560 5815 c0 -849 -1 -827 63 -949 40 -78 145 -183 223 -223 157
-83 339 -85 502 -5 76 36 174 131 222 211 66 112 72 147 77 411 l4 235 -545
545 -546 545 0 -770z m553 -103 l319 -317 -5 -172 c-4 -169 -4 -173 -36 -237
-61 -124 -174 -192 -306 -184 -40 3 -90 14 -117 26 -59 26 -127 93 -159 157
l-24 50 -3 505 c-1 277 1 501 5 497 4 -4 151 -150 326 -325z m48 175 c-10 -9
-11 -8 -5 6 3 10 9 15 12 12 3 -3 0 -11 -7 -18z m-9 -66 c21 -6 26 -10 13 -10
-28 -1 -65 26 -64 47 0 13 3 11 9 -5 5 -13 23 -26 42 -32z m77 26 c-2 -1 -13
-9 -24 -17 -19 -14 -19 -14 -6 3 7 9 18 17 24 17 6 0 8 -1 6 -3z"/>
<path d="M0 450 l0 -450 8000 0 8000 0 0 450 0 450 -8000 0 -8000 0 0 -450z
m635 263 c59 -20 122 -80 156 -148 20 -42 24 -65 24 -140 0 -97 -13 -134 -63
-187 -50 -54 -53 -27 -12 87 59 162 -49 317 -221 317 -89 0 -153 -44 -192
-130 -25 -58 -18 -126 19 -189 43 -74 138 -103 214 -65 98 49 108 192 16 236
-49 23 -64 20 -102 -18 -38 -38 -41 -54 -19 -95 27 -53 61 -48 67 9 2 24 9 36
21 38 48 9 62 -54 24 -102 -20 -25 -31 -29 -70 -29 -56 0 -94 23 -113 68 -42
102 20 210 129 222 62 7 111 -12 151 -59 93 -109 58 -272 -73 -340 -134 -70
-299 -10 -351 130 -28 73 -24 196 8 257 64 126 240 188 387 138z m613 -208 c3
-164 -8 -198 -71 -229 -33 -16 -45 -17 -76 -7 -20 6 -48 22 -62 37 -21 22 -24
35 -24 96 0 68 1 70 37 104 44 40 93 47 103 14 8 -25 -10 -50 -36 -50 -10 0
-26 -11 -35 -25 -48 -73 28 -155 86 -93 18 20 20 35 20 153 0 73 3 135 7 139
4 4 16 6 28 4 19 -3 20 -11 23 -143z m1887 110 c0 -27 -3 -30 -30 -30 -21 0
-31 5 -33 18 -6 33 6 49 35 45 24 -3 28 -8 28 -33z m-285 -45 l0 -29 73 -3 72
-3 0 -30 0 -30 -72 -3 -73 -3 0 -44 c0 -24 5 -56 12 -70 19 -43 78 -28 78 20
0 28 17 44 41 38 43 -12 13 -110 -43 -139 -26 -13 -38 -14 -70 -5 -53 16 -66
47 -68 161 -3 170 -3 170 25 170 21 0 25 -5 25 -30z m-1402 -62 c3 -22 -2 -29
-23 -34 -36 -9 -45 -32 -45 -117 0 -78 -13 -106 -45 -93 -12 4 -15 24 -15 94
0 49 5 102 10 118 22 62 112 86 118 32z m240 12 c19 -12 32 -28 32 -40 0 -32
-71 -111 -95 -108 -27 4 -30 39 -5 65 25 28 25 33 0 33 -26 0 -62 -57 -54 -85
13 -43 35 -55 95 -55 73 0 89 -6 89 -36 0 -30 -29 -38 -111 -32 -51 4 -65 9
-91 35 -24 24 -32 42 -36 83 -11 121 83 196 176 140z m316 -19 c30 -30 31 -35
34 -131 3 -85 1 -101 -12 -106 -16 -6 -46 11 -44 24 0 4 0 37 -1 75 -1 53 -5
71 -21 87 -57 57 -130 -25 -85 -94 9 -13 29 -26 46 -30 26 -5 30 -10 27 -33
-2 -21 -9 -29 -28 -31 -36 -4 -89 33 -106 73 -59 141 87 269 190 166z m265 23
c19 -14 25 -14 32 -3 5 9 26 14 53 14 36 0 51 -6 73 -28 27 -27 28 -31 28
-135 l0 -107 -25 0 c-25 0 -25 2 -30 94 -4 75 -9 96 -22 105 -13 8 -23 8 -35
0 -14 -9 -19 -30 -23 -105 -5 -86 -7 -94 -26 -97 -26 -4 -30 9 -33 108 -2 77
-11 100 -40 100 -32 0 -41 -22 -41 -106 0 -85 -12 -113 -45 -100 -12 4 -15 25
-15 100 0 105 9 134 48 159 34 21 71 21 101 1z m470 -6 c11 -30 -4 -48 -39
-48 -32 0 -40 -14 -40 -75 0 -66 -26 -113 -69 -125 -47 -13 -56 -13 -69 3 -19
23 -3 57 27 57 40 0 51 18 51 85 0 86 30 123 103 124 20 1 30 -5 36 -21z m389
-114 c2 -118 1 -132 -15 -138 -32 -13 -43 21 -43 125 0 110 11 152 38 147 15
-3 17 -19 20 -134z m230 120 c20 -14 24 -14 44 0 34 24 74 20 110 -13 l33 -29
0 -109 0 -108 -25 0 c-24 0 -25 2 -30 92 -5 100 -15 119 -54 109 -26 -6 -26
-8 -26 -102 0 -77 -3 -96 -16 -101 -28 -10 -39 16 -44 104 -4 67 -9 88 -22 97
-13 8 -23 8 -35 0 -15 -9 -19 -28 -21 -97 -3 -89 -15 -116 -48 -103 -13 5 -15
22 -12 112 3 105 3 106 36 135 36 33 76 37 110 13z m450 -4 c19 -12 32 -28 32
-40 0 -32 -71 -111 -95 -108 -27 4 -30 39 -5 65 25 27 25 33 2 33 -27 0 -55
-36 -55 -70 0 -42 28 -70 72 -70 47 0 64 -12 59 -41 -7 -51 -132 -33 -167 25
-42 67 -19 179 42 210 43 21 76 20 115 -4z m366 -12 c14 -13 28 -35 32 -50 6
-27 4 -28 -30 -28 -23 0 -39 5 -42 15 -9 24 -43 29 -65 9 -25 -23 -25 -84 0
-115 16 -21 22 -22 45 -11 14 6 26 16 26 22 0 5 16 10 35 10 29 0 35 -4 35
-21 0 -11 -13 -34 -29 -50 -24 -24 -38 -29 -76 -29 -63 0 -99 21 -119 70 -29
73 -13 150 37 180 46 28 118 27 151 -2z m263 5 c32 -21 53 -70 53 -123 0 -89
-54 -135 -147 -128 -65 6 -87 25 -104 90 -16 57 0 118 38 154 32 30 119 34
160 7z m290 2 c18 -13 22 -13 33 0 8 10 30 15 60 15 40 0 52 -4 69 -26 18 -23
21 -41 21 -135 l0 -109 -40 0 -39 0 -3 96 c-2 79 -6 99 -20 108 -14 8 -21 7
-34 -6 -14 -13 -16 -34 -15 -107 l2 -91 -40 0 -41 0 0 88 c0 106 -13 133 -54
114 -25 -11 -26 -14 -26 -107 l0 -95 -40 0 -40 0 0 130 0 131 50 -2 c27 -2 53
0 57 4 12 13 78 7 100 -8z m7431 -80 c0 -82 -1 -85 -23 -85 -22 0 -23 3 -21
66 2 57 0 68 -16 72 -30 7 -20 30 15 34 17 2 35 2 39 1 3 -2 6 -41 6 -88z
m582 68 c0 -8 -9 -26 -19 -40 -11 -13 -23 -44 -27 -69 -5 -34 -10 -44 -25 -44
-26 0 -25 44 1 95 11 22 20 41 20 42 0 2 -15 3 -34 3 -20 0 -36 6 -39 14 -8
20 -5 21 62 18 46 -3 61 -7 61 -19z m1600 1 c0 -10 -12 -14 -41 -14 -33 0 -40
-3 -37 -17 2 -12 14 -19 36 -21 46 -5 43 -32 -3 -32 -28 0 -35 -4 -35 -20 0
-17 7 -20 40 -20 29 0 40 -4 40 -15 0 -12 -13 -15 -60 -15 l-60 0 0 84 0 85
53 3 c61 3 67 2 67 -18z m-2511 -69 c-1 -79 -3 -85 -23 -85 -20 0 -21 6 -23
85 -2 84 -1 85 23 85 25 0 25 -1 23 -85z m127 77 c35 -23 45 -102 18 -140 -12
-18 -25 -22 -70 -22 l-54 0 0 85 0 85 48 0 c26 0 52 -4 58 -8z m359 -39 c0
-23 3 -45 8 -49 4 -4 7 -15 7 -25 0 -49 -85 -68 -115 -27 -19 28 -4 36 31 17
18 -9 27 -10 36 -1 15 15 2 42 -22 42 -11 0 -20 7 -20 15 0 8 9 15 20 15 11 0
20 7 20 15 0 17 -25 20 -35 5 -9 -15 -35 -12 -35 3 0 25 25 38 65 35 40 -3 40
-3 40 -45z m135 27 c15 -28 15 -117 0 -135 -16 -19 -74 -19 -90 0 -21 26 -25
101 -6 130 21 32 80 36 96 5z m136 3 c16 -21 18 -106 4 -134 -8 -14 -21 -19
-50 -19 -29 0 -42 5 -50 19 -16 31 -12 117 6 135 21 21 73 20 90 -1z m273 8
c9 -6 12 -19 8 -37 -3 -15 0 -38 6 -51 7 -16 7 -30 -1 -48 -9 -20 -19 -25 -49
-25 -50 0 -65 11 -64 46 1 16 1 45 2 64 0 19 5 40 11 47 12 15 66 17 87 4z
m144 -12 c14 -23 2 -61 -29 -92 l-27 -27 37 0 c25 0 36 -4 36 -15 0 -12 -13
-15 -60 -15 -72 0 -77 13 -25 68 19 20 35 42 35 49 0 21 -23 27 -35 10 -25
-35 -53 -13 -29 22 12 17 24 21 51 19 20 -2 40 -10 46 -19z m137 -29 c0 -27 5
-50 10 -50 6 0 10 -7 10 -15 0 -8 -4 -15 -10 -15 -5 0 -10 -9 -10 -20 0 -13
-7 -20 -20 -20 -13 0 -20 7 -20 20 0 16 -7 20 -35 20 -43 0 -44 10 -3 77 24
39 38 53 55 53 21 0 23 -5 23 -50z m134 28 c9 -12 16 -41 16 -63 0 -56 -22
-85 -64 -85 -21 0 -36 6 -40 15 -4 11 2 15 24 15 17 0 30 2 30 4 0 2 3 11 6
19 4 11 -1 13 -20 10 -15 -3 -33 0 -41 7 -21 17 -19 76 3 89 30 18 70 13 86
-11z m230 6 c42 -41 43 -91 5 -133 -27 -29 -85 -28 -116 1 -31 29 -32 92 -1
125 26 27 88 32 112 7z m236 1 c0 -8 -8 -15 -19 -15 -22 0 -30 -23 -27 -89 1
-40 -2 -51 -16 -54 -25 -7 -28 0 -28 75 0 60 -2 68 -19 68 -10 0 -21 7 -25 15
-4 12 6 15 64 15 56 0 70 -3 70 -15z m134 0 c26 -26 31 -84 11 -122 -16 -29
-23 -33 -57 -33 -52 0 -78 27 -78 83 0 60 22 87 70 87 21 0 45 -7 54 -15z
m166 -4 c24 -45 -2 -91 -52 -91 -24 0 -28 -4 -28 -30 0 -23 -4 -30 -20 -30
-18 0 -20 7 -20 85 l0 85 55 0 c43 0 56 -4 65 -19z m77 -43 l17 -62 19 62 c14
50 22 62 38 62 13 0 19 -5 17 -12 -2 -7 -15 -46 -28 -85 -20 -59 -28 -73 -45
-73 -16 0 -25 12 -40 58 -10 31 -25 69 -32 85 -13 26 -12 27 12 27 22 0 27 -7
42 -62z m354 52 c25 -14 25 -50 0 -50 -10 0 -21 7 -25 15 -3 8 -14 15 -25 15
-25 0 -39 -57 -22 -89 14 -24 39 -28 47 -6 7 17 44 21 44 4 0 -30 -22 -49 -58
-49 -43 0 -55 7 -71 37 -20 40 -9 104 23 125 16 11 64 10 87 -2z m159 -5 c0
-9 -9 -15 -25 -15 -24 0 -25 -2 -25 -74 0 -69 -1 -74 -20 -69 -18 5 -20 14
-20 73 0 63 -2 69 -22 72 -12 2 -23 9 -26 16 -3 9 15 12 67 12 56 0 71 -3 71
-15z m136 -6 c25 -28 24 -101 -1 -129 -22 -25 -81 -27 -107 -3 -24 22 -25 109
-1 135 23 26 84 24 109 -3z m152 9 c5 -7 9 -39 9 -70 0 -34 6 -64 14 -74 11
-14 9 -15 -17 -12 -23 2 -30 9 -34 33 -3 18 -12 31 -23 33 -13 3 -17 -4 -17
-31 0 -26 -5 -36 -20 -40 -16 -4 -20 0 -21 21 0 15 -1 55 -2 90 l-2 62 51 0
c29 0 56 -5 62 -12z m156 -10 c20 -28 0 -45 -26 -21 -17 15 -48 12 -48 -6 0
-5 17 -16 39 -24 41 -17 55 -38 46 -68 -12 -38 -98 -38 -123 -2 -13 20 -13 23
2 29 10 4 25 -1 36 -11 18 -17 50 -15 50 2 0 5 -19 17 -42 28 -71 33 -62 95
13 95 28 0 42 -6 53 -22z m156 7 c0 -9 -9 -15 -25 -15 -24 0 -25 -2 -25 -70 0
-63 -2 -70 -20 -70 -18 0 -20 7 -20 69 0 64 -2 70 -22 73 -12 2 -23 9 -26 16
-3 9 15 12 67 12 56 0 71 -3 71 -15z m140 -12 c26 -33 23 -92 -6 -124 -25 -28
-88 -26 -108 3 -21 30 -21 106 1 130 26 29 87 24 113 -9z m154 11 c9 -8 16
-22 16 -30 0 -19 -36 -18 -44 1 -8 23 -35 18 -47 -9 -23 -49 17 -112 46 -73
17 23 45 22 45 -3 0 -24 -29 -40 -74 -40 -29 0 -38 5 -51 30 -19 36 -19 61 -1
105 14 32 19 35 55 35 23 0 46 -7 55 -16z m76 -21 l1 -38 22 37 c17 30 28 38
50 38 l29 0 -32 -40 -32 -40 31 -39 c17 -21 31 -42 31 -45 0 -15 -50 -4 -63
14 -8 11 -17 17 -21 13 -4 -4 -4 0 -1 9 4 9 2 19 -4 23 -7 4 -11 -7 -11 -29 0
-29 -4 -36 -20 -36 -18 0 -20 7 -20 85 0 78 2 85 20 85 16 0 20 -7 20 -37z
m-11665 -188 c0 -27 -3 -30 -30 -30 -21 0 -31 5 -33 18 -6 33 6 49 35 45 24
-3 28 -8 28 -33z"/>
<path d="M4326 448 c-31 -44 -9 -128 33 -128 29 0 51 33 51 77 0 65 -52 97
-84 51z"/>
<path d="M11890 435 c0 -46 3 -55 18 -55 27 0 42 20 42 55 0 35 -15 55 -42 55
-15 0 -18 -9 -18 -55z"/>
<path d="M12386 474 c-3 -9 -6 -26 -6 -39 0 -60 35 -77 42 -21 6 57 -20 102
-36 60z"/>
<path d="M12524 476 c-11 -28 0 -91 16 -91 11 0 16 14 18 53 2 42 0 52 -13 52
-9 0 -18 -6 -21 -14z"/>
<path d="M12800 475 c0 -8 7 -15 15 -15 8 0 15 7 15 15 0 8 -7 15 -15 15 -8 0
-15 -7 -15 -15z"/>
<path d="M12802 417 c-15 -17 1 -42 23 -33 18 6 17 37 -1 43 -6 2 -16 -2 -22
-10z"/>
<path d="M13080 440 c-9 -16 -8 -20 5 -20 8 0 15 9 15 20 0 11 -2 20 -5 20 -2
0 -9 -9 -15 -20z"/>
<path d="M13217 484 c-15 -15 -7 -45 11 -42 9 2 17 12 17 22 0 20 -16 31 -28
20z"/>
<path d="M13407 482 c-38 -42 -9 -112 46 -112 26 0 67 40 67 65 0 7 -9 24 -21
39 -24 31 -68 35 -92 8z m80 -7 c8 -22 -4 -30 -21 -16 -20 17 -36 6 -36 -24 0
-33 17 -41 42 -18 20 18 20 18 17 -1 -10 -47 -70 -45 -77 4 -7 46 6 70 39 70
17 0 32 -6 36 -15z"/>
<path d="M13802 478 c-17 -17 -15 -73 3 -88 34 -28 68 27 46 76 -12 26 -30 31
-49 12z"/>
<path d="M13960 465 c0 -22 4 -26 23 -23 14 2 22 10 22 23 0 13 -8 21 -22 23
-19 3 -23 -1 -23 -23z"/>
<path d="M14687 484 c-9 -9 -9 -66 -1 -88 9 -24 43 -19 54 8 12 34 -2 80 -26
84 -11 2 -23 0 -27 -4z"/>
<path d="M14850 470 c0 -13 7 -20 20 -20 13 0 20 7 20 20 0 13 -7 20 -20 20
-13 0 -20 -7 -20 -20z"/>
<path d="M15292 478 c-7 -7 -12 -29 -12 -49 0 -29 5 -39 20 -44 11 -3 24 -4
29 -1 15 10 21 53 11 80 -10 28 -29 33 -48 14z"/>
</g>
</svg>
