<?xml version="1.0" standalone="no"?>
<!DOCTYPE svg PUBLIC "-//W3C//DTD SVG 20010904//EN"
 "http://www.w3.org/TR/2001/REC-SVG-20010904/DTD/svg10.dtd">
<svg version="1.0" xmlns="http://www.w3.org/2000/svg"
 width="840.000000pt" height="672.000000pt" viewBox="0 0 840.000000 672.000000"
 preserveAspectRatio="xMidYMid meet">

<g transform="translate(0.000000,672.000000) scale(0.100000,-0.100000)"
fill="#000000" stroke="none">
<path d="M4493 6295 c-14 -10 -24 -31 -28 -60 -6 -34 -12 -46 -29 -50 -54 -16
-158 -63 -231 -104 -92 -53 -227 -181 -264 -251 -48 -92 -149 -277 -180 -331
-47 -83 -132 -159 -233 -208 -107 -52 -304 -109 -485 -140 -170 -29 -181 -31
-423 -60 -243 -29 -614 -55 -690 -47 -207 20 -302 18 -445 -8 -360 -64 -508
-105 -666 -185 -278 -140 -446 -343 -508 -612 -11 -49 -26 -182 -35 -319 -9
-129 -21 -298 -27 -375 -5 -77 -12 -189 -13 -250 -2 -60 -9 -256 -16 -435 -14
-360 -9 -1246 9 -1565 39 -699 39 -694 83 -777 38 -71 82 -112 163 -149 119
-55 186 -61 790 -66 l550 -5 55 24 55 23 2785 5 2785 5 70 22 c308 96 512 305
596 609 20 73 22 115 31 544 8 407 5 1034 -7 1490 -11 402 -50 873 -91 1090
-63 338 -74 385 -109 465 -20 45 -50 68 -155 120 -52 25 -96 48 -98 50 -2 2 1
28 8 57 33 149 40 186 40 223 0 22 -7 50 -15 62 -35 49 -201 150 -335 203
-140 55 -499 126 -665 131 -110 4 -131 0 -176 -31 l-44 -30 -62 66 c-34 36
-73 89 -86 117 -47 99 -67 147 -67 157 0 32 -78 166 -129 221 -100 109 -332
259 -401 259 -29 0 -30 1 -30 48 0 88 47 82 -646 82 -528 0 -612 -2 -631 -15z
m-2892 -1427 c49 -16 95 -54 109 -89 27 -64 -28 -147 -127 -191 -67 -30 -190
-40 -260 -22 -99 26 -165 96 -149 160 11 42 85 109 148 132 61 24 222 30 279
10z m3649 -168 c171 -13 293 -39 485 -102 123 -40 337 -138 413 -189 24 -16
45 -29 47 -29 2 0 19 -10 37 -22 235 -161 471 -399 620 -628 82 -126 185 -337
233 -475 27 -80 73 -272 91 -385 21 -130 24 -455 5 -580 -29 -195 -55 -299
-112 -455 -110 -303 -275 -561 -505 -790 -287 -287 -614 -471 -1009 -570 -135
-34 -379 -65 -507 -65 -74 0 -321 25 -393 40 -27 6 -63 13 -80 16 -273 54
-612 219 -887 430 -76 60 -283 275 -353 369 -66 88 -105 144 -105 150 0 2 -13
23 -29 47 -83 125 -182 361 -231 552 -56 217 -63 282 -64 541 -1 236 4 289 40
460 150 713 671 1313 1360 1564 305 111 596 149 944 121z m-3142 -966 l22 -15
0 -1506 c0 -1388 -1 -1508 -17 -1525 -20 -22 -51 -23 -75 -1 -17 15 -18 76
-18 1519 l0 1503 26 20 c32 25 33 25 62 5z m5213 -746 c98 -108 174 -269 186
-394 12 -130 -48 -293 -155 -420 -53 -63 -61 -69 -100 -72 l-43 -3 5 33 c3 18
11 67 18 108 16 99 16 550 0 650 -26 157 -28 140 14 140 30 0 43 -7 75 -42z"/>
<path d="M4795 4358 c-265 -49 -377 -84 -558 -174 -460 -230 -799 -639 -935
-1129 -49 -175 -62 -282 -62 -496 0 -269 31 -432 127 -679 54 -139 170 -336
266 -454 56 -69 223 -235 272 -271 22 -17 45 -35 50 -41 6 -6 49 -36 97 -67
209 -137 438 -225 706 -274 148 -26 460 -24 607 5 396 78 703 241 971 514 343
348 524 788 524 1272 0 639 -331 1223 -882 1555 -208 124 -421 199 -689 241
-80 12 -425 11 -494 -2z m426 -783 c215 -37 399 -134 554 -290 111 -113 169
-201 235 -360 36 -88 70 -260 70 -360 0 -106 -34 -274 -77 -383 -85 -213 -261
-410 -478 -532 -127 -71 -372 -126 -517 -116 -105 7 -254 38 -334 70 -276 108
-513 358 -603 637 -97 301 -50 640 125 900 52 77 197 222 277 275 217 146 491
204 748 159z"/>
</g>
</svg>
