<?xml version="1.0" standalone="no"?>
<!DOCTYPE svg PUBLIC "-//W3C//DTD SVG 20010904//EN"
 "http://www.w3.org/TR/2001/REC-SVG-20010904/DTD/svg10.dtd">
<svg version="1.0" xmlns="http://www.w3.org/2000/svg"
 width="500.000000pt" height="500.000000pt" viewBox="0 0 500.000000 500.000000"
 preserveAspectRatio="xMidYMid meet">

<g transform="translate(0.000000,500.000000) scale(0.100000,-0.100000)"
fill="#000000" stroke="none">
<path d="M3162 4623 l3 -127 820 1 c451 1 864 2 918 3 l97 0 0 125 0 125 -920
0 -921 0 3 -127z m358 37 c0 -5 -4 -10 -10 -10 -5 0 -10 -16 -10 -35 0 -19 -4
-35 -10 -35 -5 0 -10 16 -10 35 0 25 -4 35 -16 35 -8 0 -12 5 -9 10 3 6 19 10
36 10 16 0 29 -4 29 -10z m75 -4 c16 -11 17 -17 7 -29 -7 -8 -9 -23 -5 -33 6
-18 6 -18 -14 -1 -11 9 -22 17 -26 17 -3 0 -8 -8 -10 -17 -3 -10 -5 3 -6 30
-1 39 2 47 17 47 10 0 27 -6 37 -14z m92 -33 c8 -19 11 -38 7 -42 -4 -3 -9 0
-11 7 -6 15 -35 16 -51 0 -16 -16 -15 -6 4 42 18 45 29 43 51 -7z m87 -3 c3 0
7 12 9 28 2 16 5 9 6 -20 0 -27 -2 -48 -5 -48 -3 0 -16 12 -28 27 l-21 27 -6
-29 c-5 -24 -7 -20 -8 20 l0 50 24 -27 c13 -16 26 -28 29 -28z m86 40 c12 -8
11 -10 -7 -10 -29 0 -30 -16 -2 -23 13 -4 20 -12 17 -24 -4 -22 -36 -30 -52
-13 -8 9 -6 11 11 6 31 -10 37 9 8 22 -27 12 -33 37 -12 45 18 8 21 8 37 -3z
m84 -5 c19 -19 10 -45 -15 -45 -10 0 -19 -7 -19 -15 0 -8 -4 -15 -10 -15 -11
0 -14 73 -3 83 11 11 31 8 47 -8z m76 -26 c12 -23 18 -44 14 -47 -4 -4 -9 -1
-11 6 -6 15 -35 16 -51 0 -9 -9 -12 -9 -12 0 0 12 31 82 37 82 1 0 12 -18 23
-41z m95 27 c16 -12 17 -16 6 -30 -11 -13 -11 -19 -1 -31 7 -8 8 -15 2 -15 -5
0 -15 7 -22 15 -16 20 -30 19 -30 -2 0 -9 -3 -13 -7 -10 -5 6 -8 59 -4 82 2
10 38 5 56 -9z m90 4 c4 -6 -5 -10 -19 -10 -14 0 -26 -4 -26 -10 0 -5 9 -10
20 -10 11 0 20 -4 20 -10 0 -5 -9 -10 -20 -10 -11 0 -20 -5 -20 -11 0 -6 9 -9
20 -6 11 3 23 1 26 -4 3 -5 -11 -9 -30 -9 -35 0 -36 1 -36 38 0 21 3 42 7 45
10 11 51 8 58 -3z m75 -22 c0 12 5 22 10 22 6 0 10 -18 10 -40 0 -47 -11 -50
-39 -12 l-20 27 -1 -27 c0 -16 -4 -28 -10 -28 -11 0 -14 73 -3 84 4 3 17 -6
30 -21 22 -27 22 -27 23 -5z m100 22 c0 -5 -7 -10 -15 -10 -10 0 -16 -12 -17
-37 l-1 -38 -4 38 c-3 24 -9 37 -19 37 -8 0 -12 5 -9 10 3 6 19 10 36 10 16 0
29 -4 29 -10z m144 4 c25 -9 19 -22 -8 -17 -16 3 -25 -1 -30 -12 -9 -25 12
-47 38 -39 16 5 18 4 9 -6 -7 -8 -22 -10 -37 -6 -21 5 -26 13 -26 36 0 17 7
33 18 39 21 13 17 12 36 5z m97 -4 c37 -20 18 -80 -26 -80 -43 0 -58 39 -28
72 19 21 27 22 54 8z m93 -40 c3 0 7 12 9 28 2 16 5 9 6 -20 0 -27 -2 -48 -5
-48 -3 0 -16 12 -28 27 l-21 27 -6 -29 c-5 -24 -7 -20 -8 20 l0 50 24 -27 c13
-16 26 -28 29 -28z m-264 0 c0 -22 -4 -40 -10 -40 -5 0 -10 18 -10 40 0 22 5
40 10 40 6 0 10 -18 10 -40z"/>
<path d="M3553 4638 c2 -7 10 -13 17 -13 7 0 15 6 18 13 2 7 -5 12 -18 12 -13
0 -20 -5 -17 -12z"/>
<path d="M3910 4635 c0 -9 5 -15 11 -13 6 2 11 8 11 13 0 5 -5 11 -11 13 -6 2
-11 -4 -11 -13z"/>
<path d="M3990 4624 c0 -8 5 -12 10 -9 6 4 8 11 5 16 -9 14 -15 11 -15 -7z"/>
<path d="M4070 4634 c0 -9 7 -14 17 -12 25 5 28 28 4 28 -12 0 -21 -6 -21 -16z"/>
<path d="M4577 4644 c-13 -13 -7 -42 10 -48 21 -8 36 6 31 30 -3 19 -29 30
-41 18z"/>
<path d="M1642 4138 c-8 -8 -12 -49 -12 -120 l0 -108 -103 0 c-140 0 -138 2
-140 -135 l-2 -110 -109 -3 c-61 -1 -116 -8 -123 -14 -18 -15 -19 -2228 -1
-2246 9 -9 195 -12 775 -12 743 0 763 0 773 19 5 11 10 65 10 120 l0 101 65 0
65 0 -7 -225 c-9 -333 -5 -334 221 -48 l164 207 321 883 c177 486 321 896 321
912 0 15 -10 43 -23 62 -19 28 -40 40 -122 71 -55 20 -110 37 -123 38 -28 0
-71 -21 -94 -46 -9 -11 -78 -190 -153 -399 -76 -209 -142 -384 -146 -389 -5
-6 -9 212 -9 500 l0 509 -122 130 c-67 72 -161 172 -210 223 l-88 92 -558 0
c-421 0 -561 -3 -570 -12z m1068 -267 c0 -168 2 -202 16 -215 13 -13 46 -16
200 -16 l184 0 0 -597 1 -598 -88 -242 -87 -243 -613 0 -613 0 0 1048 c0 577
3 1052 7 1055 3 4 228 7 500 7 l493 0 0 -199z m340 -143 c0 -5 -56 -8 -125 -8
l-125 0 0 138 1 137 124 -130 c68 -71 124 -133 125 -137z m-1420 -873 c0 -943
0 -965 19 -975 13 -6 230 -10 635 -10 339 0 616 -3 616 -7 -1 -5 -13 -39 -28
-78 l-28 -70 -687 -3 -687 -2 0 1055 0 1055 80 0 80 0 0 -965z m-244 -244 c1
-811 3 -964 15 -972 8 -5 285 -9 617 -9 l602 0 0 -80 0 -80 -697 2 -698 3 -3
1040 c-1 572 0 1046 3 1053 3 9 26 12 82 10 l78 -3 1 -964z m2302 803 c40 -15
77 -35 82 -45 7 -12 2 -37 -16 -86 -14 -37 -27 -70 -29 -71 -3 -3 -205 67
-214 74 -5 4 39 125 52 142 14 18 44 15 125 -14z m-31 -271 c40 -14 41 -16 31
-44 -5 -16 -14 -32 -20 -35 -7 -4 -202 59 -216 71 -1 1 5 18 13 38 l15 36 67
-25 c38 -14 87 -32 110 -41z m-174 -112 c4 -4 -101 -307 -234 -673 l-242 -665
-33 10 c-19 6 -34 14 -34 17 0 4 106 300 235 656 130 357 238 655 240 663 5
13 51 8 68 -8z m126 -42 c17 -6 31 -13 31 -15 0 -5 -481 -1328 -484 -1331 -5
-5 -66 19 -66 26 0 14 480 1331 485 1331 1 0 16 -5 34 -11z m-592 -1390 c48
-17 89 -32 91 -34 3 -2 -117 -155 -122 -155 -2 0 -17 5 -35 11 l-31 11 0 99
c0 54 2 99 4 99 3 0 44 -14 93 -31z m-87 -263 c0 -3 -4 -8 -10 -11 -5 -3 -10
-1 -10 4 0 6 5 11 10 11 6 0 10 -2 10 -4z"/>
<path d="M1806 3918 c-13 -19 -14 -25 -2 -43 13 -19 23 -20 404 -23 345 -2
392 0 406 14 22 21 20 51 -3 64 -13 6 -158 10 -405 10 l-385 0 -15 -22z"/>
<path d="M1814 3792 c-18 -12 -23 -39 -11 -56 11 -15 54 -16 411 -14 367 3
400 4 410 21 8 12 8 22 0 35 -10 16 -42 17 -405 19 -217 2 -399 -1 -405 -5z"/>
<path d="M1838 3515 c-53 -29 -63 -142 -17 -191 19 -21 32 -24 89 -24 98 0
129 36 117 138 -7 65 -40 92 -110 92 -29 -1 -64 -7 -79 -15z m107 -100 c0 -27
-4 -30 -32 -33 -32 -3 -33 -2 -33 33 0 35 1 36 33 33 28 -3 32 -6 32 -33z"/>
<path d="M2084 3485 c-10 -42 10 -55 86 -55 74 0 94 12 88 52 -3 22 -8 23 -85
26 -81 3 -83 2 -89 -23z"/>
<path d="M2327 3503 c-11 -11 -8 -48 5 -61 16 -16 650 -17 679 -2 21 12 25 40
7 58 -9 9 -100 12 -348 12 -185 0 -340 -3 -343 -7z"/>
<path d="M2090 3365 c-14 -17 -5 -64 13 -66 56 -6 116 -5 135 2 24 9 30 47 10
67 -18 18 -142 16 -158 -3z"/>
<path d="M2332 3368 c-14 -14 -16 -54 -2 -63 18 -11 673 -5 687 6 19 17 16 47
-6 59 -29 15 -663 14 -679 -2z"/>
<path d="M1833 3155 c-51 -36 -55 -156 -6 -195 19 -15 41 -20 85 -20 52 0 63
3 89 29 25 26 29 37 29 86 0 49 -4 60 -29 86 -26 25 -37 29 -88 29 -36 0 -67
-6 -80 -15z m112 -100 c0 -27 -4 -30 -32 -33 -32 -3 -33 -2 -33 33 0 35 1 36
33 33 28 -3 32 -6 32 -33z"/>
<path d="M2098 3149 c-24 -13 -23 -56 1 -69 11 -5 43 -10 71 -10 64 0 90 13
90 45 0 14 -8 29 -19 35 -25 13 -121 13 -143 -1z"/>
<path d="M2338 3149 c-24 -13 -23 -56 1 -69 13 -6 138 -10 340 -10 277 0 322
2 335 16 9 8 16 22 16 29 0 7 -7 21 -16 29 -13 14 -58 16 -337 16 -200 0 -329
-4 -339 -11z"/>
<path d="M2092 3008 c-7 -7 -12 -20 -12 -29 0 -31 25 -40 102 -37 72 3 73 3
76 32 2 16 -2 32 -10 37 -20 13 -142 11 -156 -3z"/>
<path d="M2330 3005 c-7 -8 -10 -25 -6 -40 l6 -25 342 2 c312 3 342 4 352 21
8 12 8 22 0 35 -10 16 -40 17 -346 20 -288 2 -337 0 -348 -13z"/>
<path d="M1827 2790 c-49 -39 -45 -159 6 -195 13 -9 44 -15 80 -15 51 0 62 4
88 29 25 25 29 37 29 84 0 45 -5 61 -26 86 -24 29 -31 31 -89 31 -47 0 -68 -5
-88 -20z m118 -95 c0 -27 -4 -30 -32 -33 -32 -3 -33 -2 -33 33 0 35 1 36 33
33 28 -3 32 -6 32 -33z"/>
<path d="M2090 2785 c-7 -9 -10 -25 -6 -40 6 -25 8 -26 89 -23 77 3 82 4 85
26 6 40 -14 52 -88 52 -48 0 -71 -4 -80 -15z"/>
<path d="M2331 2786 c-7 -8 -11 -25 -9 -38 l3 -23 344 0 c317 0 345 1 355 18
8 12 8 22 0 35 -10 16 -40 17 -346 20 -284 2 -337 0 -347 -12z"/>
<path d="M2092 2648 c-15 -15 -15 -41 0 -56 14 -14 136 -16 156 -3 8 5 12 21
10 37 -3 29 -3 29 -78 32 -50 2 -79 -1 -88 -10z"/>
<path d="M2332 2648 c-16 -16 -15 -43 2 -57 9 -8 109 -11 346 -9 304 3 334 4
344 21 8 12 8 22 0 35 -10 16 -40 17 -345 20 -252 2 -338 -1 -347 -10z"/>
<path d="M1855 2451 c-79 -33 -87 -179 -13 -217 43 -22 132 -15 160 14 26 26
36 109 18 153 -21 49 -105 74 -165 50z m90 -116 c0 -27 -3 -30 -30 -30 -27 0
-30 4 -33 33 -3 32 -2 33 30 30 29 -3 33 -6 33 -33z"/>
<path d="M2092 2428 c-6 -6 -12 -20 -12 -29 0 -31 25 -40 102 -37 l73 3 0 35
0 35 -75 3 c-50 2 -79 -1 -88 -10z"/>
<path d="M2332 2428 c-16 -16 -15 -43 2 -57 9 -8 109 -11 346 -9 304 3 334 4
344 21 8 12 8 22 0 35 -10 16 -40 17 -345 20 -252 2 -338 -1 -347 -10z"/>
<path d="M2096 2295 c-19 -19 -21 -46 -4 -63 7 -7 40 -12 78 -12 71 0 90 10
90 47 0 29 -22 40 -91 42 -41 1 -61 -3 -73 -14z"/>
<path d="M2338 2299 c-21 -11 -24 -49 -6 -67 9 -9 98 -12 339 -12 284 0 330 2
343 16 18 18 20 32 6 54 -8 13 -58 15 -337 17 -206 1 -335 -2 -345 -8z"/>
<path d="M114 1105 c-6 -13 -9 -14 -16 -3 -8 10 -9 10 -5 -2 5 -19 52 -20 52
-1 0 21 -24 25 -31 6z m26 -5 c0 -5 -4 -10 -10 -10 -5 0 -10 5 -10 10 0 6 5
10 10 10 6 0 10 -4 10 -10z"/>
<path d="M81 1038 c1 -19 2 -19 6 -5 3 13 10 16 21 12 38 -15 46 -16 22 -1
-35 22 -50 20 -49 -6z"/>
<path d="M80 998 c0 -21 20 -24 38 -6 10 10 15 10 22 -2 7 -11 10 -11 10 -2 0
19 -31 27 -41 11 -8 -12 -11 -12 -19 1 -8 13 -10 12 -10 -2z"/>
<path d="M98 953 c12 -2 30 -2 40 0 9 3 -1 5 -23 4 -22 0 -30 -2 -17 -4z"/>
<path d="M81 908 c1 -19 2 -19 6 -5 3 13 10 16 21 12 38 -15 46 -16 22 -1 -35
22 -50 20 -49 -6z"/>
<path d="M85 869 c-4 -6 -4 -13 -1 -16 3 -4 6 -1 6 5 0 14 42 12 52 -3 5 -6 8
-3 8 8 0 12 -8 17 -29 17 -17 0 -33 -5 -36 -11z"/>
<path d="M85 819 c-4 -6 -4 -13 -1 -16 3 -4 6 -1 6 5 0 14 42 12 52 -3 5 -6 8
-3 8 8 0 12 -8 17 -29 17 -17 0 -33 -5 -36 -11z"/>
<path d="M85 769 c-4 -6 -4 -13 -1 -16 3 -4 6 -1 6 5 0 17 20 15 42 -5 17 -15
18 -15 18 8 0 17 -3 20 -9 10 -6 -9 -11 -10 -15 -2 -9 14 -33 14 -41 0z"/>
<path d="M85 719 c-4 -6 -4 -13 -1 -16 3 -4 6 -1 6 5 0 17 20 15 42 -5 17 -15
18 -15 18 8 0 17 -3 20 -9 10 -6 -9 -11 -10 -15 -2 -9 14 -33 14 -41 0z"/>
<path d="M100 667 c0 -18 2 -19 10 -7 6 10 10 11 10 3 0 -7 4 -13 10 -13 14 0
1 27 -16 34 -9 4 -14 -2 -14 -17z"/>
<path d="M123 613 c9 -2 25 -2 35 0 9 3 1 5 -18 5 -19 0 -27 -2 -17 -5z"/>
<path d="M130 566 c-6 -8 -24 -17 -38 -19 -16 -2 -8 -4 18 -5 25 0 39 2 32 5
-10 4 -10 8 -1 19 6 8 9 14 6 14 -2 0 -10 -6 -17 -14z"/>
<path d="M100 523 c0 -6 4 -15 10 -18 6 -4 5 -13 -3 -26 -10 -16 -9 -21 3 -29
22 -14 48 14 31 34 -8 10 -9 16 -1 21 5 3 10 11 10 18 0 6 -6 2 -14 -8 -13
-18 -13 -18 -24 1 -6 10 -12 14 -12 7z m38 -54 c-2 -6 -8 -10 -13 -10 -5 0
-11 4 -13 10 -2 6 4 11 13 11 9 0 15 -5 13 -11z"/>
<path d="M94 431 c-2 -2 -1 -7 1 -11 5 -9 55 -1 55 9 0 6 -49 9 -56 2z"/>
<path d="M80 388 c0 -21 36 -25 43 -5 4 9 8 8 16 -3 9 -13 11 -13 11 3 0 20
-36 24 -43 5 -4 -10 -8 -9 -16 2 -9 13 -11 13 -11 -2z"/>
<path d="M100 322 c0 -4 4 -12 9 -17 11 -11 -6 -39 -29 -48 -8 -3 4 -6 28 -6
43 -1 54 13 30 37 -9 9 -9 12 0 12 7 0 12 8 12 18 0 14 -2 15 -10 2 -6 -10
-10 -11 -10 -2 0 6 -7 12 -15 12 -8 0 -15 -4 -15 -8z m40 -52 c0 -5 -7 -10
-15 -10 -8 0 -15 5 -15 10 0 6 7 10 15 10 8 0 15 -4 15 -10z"/>
<path d="M104 229 c-3 -6 -1 -16 5 -22 9 -9 11 -8 6 6 -5 12 -2 17 10 17 12 0
15 -5 10 -17 -5 -14 -3 -15 6 -6 13 13 4 33 -16 33 -8 0 -17 -5 -21 -11z"/>
<path d="M80 183 c8 -4 21 -13 28 -22 11 -14 11 -14 6 2 -4 12 -1 17 11 17 12
0 15 -5 10 -17 -5 -14 -3 -15 6 -6 18 18 1 33 -39 32 -20 0 -30 -3 -22 -6z"/>
<path d="M130 132 c-22 -10 -21 -39 2 -45 16 -4 17 -3 7 9 -9 11 -9 17 1 29
14 16 13 17 -10 7z"/>
<path d="M80 110 c0 -5 5 -10 10 -10 6 0 10 5 10 10 0 6 -4 10 -10 10 -5 0
-10 -4 -10 -10z"/>
</g>
</svg>
